

$ DEMON TORRENTS $    #######   SERIOUS       UPLOADING!!!!!       ########





....ALL THE FILES UPLOADED ARE NOT CREATED BY THE UPLOADER....


release info:



Adhiradi Nai Irandu Thirudargal.tamil dubbed.350MB.tdm.mastitorrents



UPLOADER : DEMON~THE DARK MASTER(TDM)





genre : tamil comedy

Format : MPEG-4
Format profile : Base Media / Version 2
Codec ID : mp42
File size : 350 MiB
Duration : 1h 18mn
Overall bit rate : 621 Kbps


Video
ID : 1
Format : AVC
Format/Info : Advanced Video Codec
Format profile : Main@L2.2
Format settings, CABAC : Yes
Format settings, ReFrames : 16 frames
Codec ID : avc1
Codec ID/Info : Advanced Video Coding
Duration : 1h 18mn
Bit rate mode : Variable
Bit rate : 457 Kbps
Width : 352 pixels
Height : 288 pixels
Display aspect ratio : 2.499
Original display aspect ratio : 2.500
Frame rate mode : Variable
Frame rate : 25.000 fps
Minimum frame rate : 12.500 fps
Maximum frame rate : 25.000 fps
Standard : PAL
Color space : YUV
Chroma subsampling : 4:2:0
Bit depth : 8 bits
Scan type : Progressive
Bits/(Pixel*Frame) : 0.180
Stream size : 257 MiB (74%)
Writing library : x264 core 79


Audio
ID : 2
Format : AAC
Format/Info : Advanced Audio Codec
Format profile : LC
Codec ID : 40
Duration : 1h 18mn
Bit rate mode : Variable
Bit rate : 160 Kbps
Maximum bit rate : 247 Kbps
Channel(s) : 2 channels
Channel positions : Front: L R
Sampling rate : 48.0 KHz
Compression mode : Lossy
Stream size : 90.2 MiB (26%)


<<<<<<<    mastitorrents  >>>>>>





****check out my other releases****
  
http://thepiratebay.org/user/tdkdemon/




                  



@@@@@  SEED    SEED     SEED        AFTER     "YOU"     DOWNLOAD     !!!!!!!@@@@@





SCREEN SHOTS :
 
 
http://img151.imageshack.us/img151/1038/thumbs20110220214102.jpg
 
http://img11.imageshack.us/img11/1711/shammu2011022021h33m50s.jpg
 
http://img141.imageshack.us/img141/7352/shammu2011022021h33m57s.jpg
 
http://img841.imageshack.us/img841/5052/shammu2011022021h34m13s.jpg
 
http://img811.imageshack.us/img811/7635/shammu2011022021h34m40s.jpg